<?xml version="1.0" encoding="UTF-8"?>
<svg width="14px" height="8px" viewBox="0 0 14 8" version="1.1" xmlns="http://www.w3.org/2000/svg" xmlns:xlink="http://www.w3.org/1999/xlink">
    <!-- Generator: sketchtool 40.3 (33839) - http://www.bohemiancoding.com/sketch -->
    <title>A56F5305-9E72-48AB-BEDB-3E40E48E49EA</title>
    <desc>Created with sketchtool.</desc>
    <defs></defs>
    <g id="Page-1" stroke="none" stroke-width="1" fill="none" fill-rule="evenodd">
        <g id="收藏流程_多个-Hover-状态" transform="translate(-309.000000, -113.000000)" fill="#C7C7C7">
            <g id="Group-7-Copy-4" transform="translate(296.000000, 104.000000)">
                <g id="Group-8" transform="translate(13.000000, 7.000000)">
                    <path d="M11,7 L9,7 L9,8 L11,8 L11,10 L12,10 L12,8 L14,8 L14,7 L12,7 L12,5 L11,5 L11,7 Z M0,2 L10,2 L10,3 L0,3 L0,2 Z M0,5 L10,5 L10,6 L0,6 L0,5 Z M0,8 L8,8 L8,9 L0,9 L0,8 Z" id="Combined-Shape"></path>
                </g>
            </g>
        </g>
    </g>
</svg>