<?xml version="1.0" encoding="UTF-8" standalone="no"?>
<svg width="24px" height="24px" viewBox="0 0 24 24" version="1.1" xmlns="http://www.w3.org/2000/svg" xmlns:xlink="http://www.w3.org/1999/xlink">
    <!-- Generator: sketchtool 3.8.3 (29802) - http://www.bohemiancoding.com/sketch -->
    <title>C9FF0C23-E7AB-4D53-AD54-76B0663D52DF</title>
    <desc>Created with sketchtool.</desc>
    <defs></defs>
    <g id="Page-1" stroke="none" stroke-width="1" fill="none" fill-rule="evenodd">
        <g id="文案" transform="translate(-1028.000000, -256.000000)" fill="#FFFFFF">
            <g id="Group-5" transform="translate(1028.000000, 256.000000)">
                <path d="M3,12.0012005 C3,15.9312291 5.51864842,19.2730052 9.02986001,20.5004434 C9.50292514,20.6206537 9.42942893,20.2814008 9.42942893,20.0533972 L9.42942893,18.4930552 C6.69929249,18.8125174 6.58991183,17.0051447 6.40558814,16.7027405 C6.03388678,16.0698436 5.15988628,15.9091079 5.42108183,15.6077284 C6.04393276,15.2862569 6.67682967,15.6880962 7.41018641,16.7730624 C7.94173944,17.559482 8.97466738,17.4275381 9.50292534,17.2953731 C9.61835368,16.8232119 9.86415878,16.4021848 10.2000161,16.0725962 C7.37550767,15.5697144 6.1946225,13.843031 6.1946225,11.7902349 C6.1946225,10.7967475 6.52256356,9.87960951 7.1683796,9.14064711 C6.76005059,7.9210849 7.20767949,6.8815668 7.26626766,6.72535177 C8.43403278,6.61918582 9.64819025,7.5607355 9.7418389,7.63491504 C10.4071642,7.45710115 11.1641893,7.35995649 12.0112465,7.35995649 C12.863628,7.35995649 13.6248322,7.45832676 14.2931915,7.63829049 C14.5212554,7.46481646 15.6470885,6.65782267 16.7328584,6.7565144 C16.7907634,6.91094125 17.2288285,7.92839838 16.8445295,9.12971708 C17.4966745,9.87056812 17.8278705,10.791845 17.8278705,11.7902349 C17.8278705,13.8471297 16.6422436,15.576626 13.8055193,16.0755698 C14.2792476,16.542045 14.5729721,17.1908547 14.5729721,17.9083991 L14.5729721,20.1716585 C14.5880812,20.3519437 14.5729721,20.5335545 14.8760795,20.533555 C18.4375411,19.3340044 21.002401,15.9671335 21.002401,12.0012005 C21.002401,7.02996605 16.9724349,3 12.0012005,3 C7.02998614,3 3,7.02996605 3,12.0012005 L3,12.0012005 Z" id="Shape"></path>
            </g>
        </g>
    </g>
</svg>