<?xml version="1.0" encoding="UTF-8" standalone="no"?>
<svg width="24px" height="24px" viewBox="0 0 24 24" version="1.1" xmlns="http://www.w3.org/2000/svg" xmlns:xlink="http://www.w3.org/1999/xlink">
    <!-- Generator: sketchtool 3.8.3 (29802) - http://www.bohemiancoding.com/sketch -->
    <title>B278ECBF-C76C-4429-8CC3-BD725C9A6CC4</title>
    <desc>Created with sketchtool.</desc>
    <defs></defs>
    <g id="Page-1" stroke="none" stroke-width="1" fill="none" fill-rule="evenodd">
        <g id="文案" transform="translate(-1029.000000, -211.000000)" fill="#FFFFFF">
            <g id="Group-4" transform="translate(1029.000000, 211.000000)">
                <path d="M16.0815155,9.1264656 C16.3201628,9.1264656 16.556287,9.14398901 16.7905075,9.17006091 C16.15347,6.20385979 12.9820912,4 9.36218203,4 C5.31514226,4 2,6.75844319 2,10.2611801 C2,12.2830442 3.10292936,13.9433659 4.9459926,15.2311501 L4.20964455,17.4457955 L6.78331873,16.1552262 C7.7042428,16.3375079 8.44311632,16.5249096 9.36216059,16.5249096 C9.59318856,16.5249096 9.82226525,16.5135044 10.0494383,16.4956475 C9.90560095,16.0034431 9.82226763,15.4879068 9.82226763,14.9530126 C9.82228669,11.7366733 12.5843704,9.1264656 16.0815155,9.1264656 L16.0815155,9.1264656 Z M12.1229792,7.13041138 C12.6773243,7.13041138 13.0445465,7.49509382 13.0445465,8.04908397 C13.0445465,8.60085838 12.6773243,8.97061321 12.1229792,8.97061321 C11.5711809,8.97061321 11.0175029,8.60085838 11.0175029,8.04908397 C11.0175029,7.49507 11.5711809,7.13041138 12.1229792,7.13041138 L12.1229792,7.13041138 Z M6.97046311,8.970587 C6.41873635,8.970587 5.86184429,8.60083217 5.86184429,8.04905776 C5.86184429,7.49507 6.41871252,7.13038517 6.97046311,7.13038517 C7.52223752,7.13038517 7.88948355,7.49506761 7.88948355,8.04905776 C7.88948355,8.60083455 7.52223752,8.970587 6.97046311,8.970587 L6.97046311,8.970587 Z M22.8008967,14.8645616 C22.8008967,11.9212184 19.8554759,9.52202785 16.547405,9.52202785 C13.0445203,9.52202785 10.285653,11.921216 10.285653,14.8645616 C10.285653,17.8129772 13.0445465,20.2070953 16.547405,20.2070953 C17.2805628,20.2070953 18.0200558,20.0222191 18.7564038,19.8376741 L20.7757567,20.9434362 L20.2220787,19.1036418 C21.6998495,17.9949968 22.8008967,16.5248857 22.8008967,14.8645616 L22.8008967,14.8645616 Z M14.5171735,13.9433659 C14.1505946,13.9433659 13.7808255,13.5786835 13.7808255,13.2067153 C13.7808255,12.8398886 14.1505946,12.4704697 14.5171735,12.4704697 C15.0740417,12.4704697 15.4387409,12.839891 15.4387409,13.2067153 C15.4387409,13.5786835 15.0740417,13.9433659 14.5171735,13.9433659 L14.5171735,13.9433659 Z M18.5667602,13.9433659 C18.2027044,13.9433659 17.8354821,13.5786835 17.8354821,13.2067153 C17.8354821,12.8398886 18.2027044,12.4704697 18.5667602,12.4704697 C19.1185346,12.4704697 19.4882561,12.839891 19.4882561,13.2067153 C19.4882799,13.5786835 19.118556,13.9433659 18.5667602,13.9433659 L18.5667602,13.9433659 Z" id="Shape"></path>
            </g>
        </g>
    </g>
</svg>