<?xml version="1.0" encoding="UTF-8" standalone="no"?>
<svg width="24px" height="24px" viewBox="0 0 24 24" version="1.1" xmlns="http://www.w3.org/2000/svg" xmlns:xlink="http://www.w3.org/1999/xlink">
    <!-- Generator: sketchtool 3.8.3 (29802) - http://www.bohemiancoding.com/sketch -->
    <title>A8876C93-6B19-457A-9C7E-65F945153EFE</title>
    <desc>Created with sketchtool.</desc>
    <defs></defs>
    <g id="Page-1" stroke="none" stroke-width="1" fill="none" fill-rule="evenodd">
        <g id="文案" transform="translate(-1029.000000, -165.000000)" fill="#FFFFFF">
            <g id="Group-3" transform="translate(1029.000000, 165.000000)">
                <path d="M16.3259529,11.1654111 C16.3259529,11.1654111 17.0813832,9.91866698 16.1768548,9.01129856 C15.0522291,7.8880929 12.323024,9.15329675 12.323024,9.15329675 C11.2793373,9.47705262 11.5562338,9.00561863 11.7039119,8.20474886 C11.7039119,7.25904093 11.380156,5.66014134 8.60267148,6.60584927 C5.8280269,7.55439716 3.4467173,10.8814147 3.4467173,10.8814147 C1.78959846,13.0923265 2.00969565,14.8005647 2.00969565,14.8005647 C2.42433036,18.5720365 6.4315192,19.6086233 9.54837941,19.8542801 C12.8285375,20.1112969 17.254621,18.7225546 18.5965039,15.871231 C19.9383868,13.0156474 17.4988579,11.8853419 16.7221278,11.7305638 C15.9496577,11.5814657 16.3259529,11.1654111 16.3259529,11.1654111 Z M9.79119631,18.7907137 C6.53517787,18.9412318 3.90395147,17.3096726 3.90395147,15.1371004 C3.90395147,12.9631081 6.53659786,11.2193704 9.79119631,11.0688523 C13.0472147,10.9183342 15.6855411,12.2616371 15.6855411,14.4299494 C15.6855411,16.6011017 13.0472147,18.6401956 9.79119631,18.7907137 L9.79119631,18.7907137 Z M9.14084461,12.500194 C5.86636641,12.8835891 6.24408159,15.95075 6.24408159,15.95075 C6.24408159,15.95075 6.21000203,16.9220176 7.12163039,17.4161713 C9.03718593,18.452758 11.0095408,17.825126 12.006368,16.5386225 C13.0060353,15.2506989 12.4195828,12.1196389 9.14084461,12.500194 L9.14084461,12.500194 Z M8.31441516,16.8041591 C7.70382296,16.8765781 7.21108925,16.5230027 7.21108925,16.0118092 C7.21108925,15.5006157 7.64844366,14.9695425 8.26045585,14.9056433 C8.96192689,14.8389042 9.41916106,15.242179 9.41916106,15.7547925 C9.41916106,16.264566 8.92358738,16.73458 8.31441516,16.8041591 L8.31441516,16.8041591 Z M10.2455905,15.1598201 C10.0382732,15.3145981 9.7840964,15.2932984 9.67475779,15.1087007 C9.55973926,14.926943 9.6037587,14.6372667 9.81249603,14.4853287 C10.0553129,14.304991 10.3080697,14.3561103 10.4174083,14.537868 C10.5267469,14.7210457 10.4472279,15.0007821 10.2455905,15.1598201 L10.2455905,15.1598201 Z M18.3167675,10.4028808 C18.5808841,10.4028808 18.8052412,10.2083433 18.8421608,9.95274654 C18.8478407,9.93428678 18.8506806,9.917247 18.8506806,9.89594727 C19.2496956,6.30055317 15.9042183,6.91966526 15.9042183,6.91966526 C15.6074421,6.91966526 15.3688851,7.1596422 15.3688851,7.45925838 C15.3688851,7.7546146 15.6074421,7.99459154 15.9042183,7.99459154 C18.3068276,7.46351832 17.7771744,9.86754763 17.7771744,9.86754763 C17.7771744,10.1657438 18.0185713,10.4028808 18.3167675,10.4028808 L18.3167675,10.4028808 Z M17.9276924,3.1279809 C16.7704072,2.85676437 15.5818824,3.09106138 15.2467667,3.15496056 C15.221207,3.15638054 15.1970673,3.18194022 15.1729276,3.18620016 C15.1615677,3.18904012 15.1544678,3.20039998 15.1544678,3.20039998 C14.825032,3.2926988 14.5850551,3.5979949 14.5850551,3.95725032 C14.5850551,4.38608484 14.9329507,4.73824035 15.3660451,4.73824035 C15.3660451,4.73824035 15.7877798,4.68144107 16.0731961,4.57068249 C16.3557725,4.45566395 18.7527019,4.48548357 19.9440667,6.48481805 C20.5929984,7.94313943 20.2280631,8.92008696 20.1840436,9.07628497 C20.1840436,9.07628497 20.0292656,9.45542013 20.0292656,9.82887536 C20.0292656,10.2591299 20.3771612,10.5303464 20.8074157,10.5303464 C21.1680911,10.5303464 21.4691272,10.482067 21.5571661,9.8728948 L21.562846,9.8728948 C22.8394097,5.6115292 19.998026,3.61077474 17.9276924,3.1279809 L17.9276924,3.1279809 Z" id="Shape"></path>
            </g>
        </g>
    </g>
</svg>